<mxfile host="app.diagrams.net" modified="2024-04-01T18:14:15.562Z" agent="Mozilla/5.0 (Windows NT 10.0; Win64; x64; rv:124.0) Gecko/20100101 Firefox/124.0" etag="vYHolrTrr_CfcNwtfWbd" version="24.2.1" type="device">
  <diagram name="P치gina-1" id="6FGkbRjbfxnUs8N43TCz">
    <mxGraphModel dx="3025" dy="1530" grid="1" gridSize="10" guides="1" tooltips="1" connect="1" arrows="1" fold="1" page="0" pageScale="1" pageWidth="827" pageHeight="1169" math="0" shadow="0">
      <root>
        <mxCell id="0" />
        <mxCell id="1" parent="0" />
        <mxCell id="S0TW6oNdfPbakom0dPrn-2" value="" style="rounded=0;whiteSpace=wrap;html=1;" vertex="1" parent="1">
          <mxGeometry x="80" y="120" width="480" height="360" as="geometry" />
        </mxCell>
        <mxCell id="S0TW6oNdfPbakom0dPrn-3" value="&lt;font style=&quot;font-size: 32px;&quot;&gt;Inicio de Sesi칩n&lt;br&gt;&lt;/font&gt;" style="text;html=1;align=center;verticalAlign=middle;whiteSpace=wrap;rounded=0;" vertex="1" parent="1">
          <mxGeometry x="190" y="160" width="260" height="30" as="geometry" />
        </mxCell>
        <mxCell id="S0TW6oNdfPbakom0dPrn-4" value="Correo" style="rounded=0;whiteSpace=wrap;html=1;" vertex="1" parent="1">
          <mxGeometry x="190" y="620" width="210" height="30" as="geometry" />
        </mxCell>
        <mxCell id="S0TW6oNdfPbakom0dPrn-5" value="Contrase침a" style="rounded=0;whiteSpace=wrap;html=1;" vertex="1" parent="1">
          <mxGeometry x="215" y="285" width="210" height="30" as="geometry" />
        </mxCell>
        <mxCell id="S0TW6oNdfPbakom0dPrn-6" value="Recordarme" style="text;html=1;align=center;verticalAlign=middle;whiteSpace=wrap;rounded=0;" vertex="1" parent="1">
          <mxGeometry x="290" y="330" width="90" height="30" as="geometry" />
        </mxCell>
        <mxCell id="S0TW6oNdfPbakom0dPrn-7" value="" style="whiteSpace=wrap;html=1;aspect=fixed;" vertex="1" parent="1">
          <mxGeometry x="278" y="335" width="20" height="20" as="geometry" />
        </mxCell>
        <mxCell id="S0TW6oNdfPbakom0dPrn-13" style="edgeStyle=orthogonalEdgeStyle;rounded=0;orthogonalLoop=1;jettySize=auto;html=1;entryX=0.5;entryY=0;entryDx=0;entryDy=0;" edge="1" parent="1" source="S0TW6oNdfPbakom0dPrn-9" target="S0TW6oNdfPbakom0dPrn-12">
          <mxGeometry relative="1" as="geometry" />
        </mxCell>
        <mxCell id="S0TW6oNdfPbakom0dPrn-9" value="Registrarse" style="rounded=0;whiteSpace=wrap;html=1;" vertex="1" parent="1">
          <mxGeometry x="190" y="400" width="120" height="40" as="geometry" />
        </mxCell>
        <mxCell id="S0TW6oNdfPbakom0dPrn-23" style="edgeStyle=orthogonalEdgeStyle;rounded=0;orthogonalLoop=1;jettySize=auto;html=1;" edge="1" parent="1" source="S0TW6oNdfPbakom0dPrn-10">
          <mxGeometry relative="1" as="geometry">
            <mxPoint x="640" y="300" as="targetPoint" />
            <Array as="points">
              <mxPoint x="600" y="420" />
              <mxPoint x="600" y="300" />
            </Array>
          </mxGeometry>
        </mxCell>
        <mxCell id="S0TW6oNdfPbakom0dPrn-10" value="Iniciar Sesion" style="rounded=0;whiteSpace=wrap;html=1;" vertex="1" parent="1">
          <mxGeometry x="320" y="400" width="120" height="40" as="geometry" />
        </mxCell>
        <mxCell id="S0TW6oNdfPbakom0dPrn-11" value="" style="rounded=0;whiteSpace=wrap;html=1;" vertex="1" parent="1">
          <mxGeometry x="640" y="120" width="480" height="360" as="geometry" />
        </mxCell>
        <mxCell id="S0TW6oNdfPbakom0dPrn-12" value="" style="rounded=0;whiteSpace=wrap;html=1;" vertex="1" parent="1">
          <mxGeometry x="80" y="560" width="480" height="360" as="geometry" />
        </mxCell>
        <mxCell id="S0TW6oNdfPbakom0dPrn-14" value="&lt;font style=&quot;font-size: 32px;&quot;&gt;Registre su Cuenta&lt;br&gt;&lt;/font&gt;" style="text;html=1;align=center;verticalAlign=middle;whiteSpace=wrap;rounded=0;" vertex="1" parent="1">
          <mxGeometry x="180" y="600" width="280" height="30" as="geometry" />
        </mxCell>
        <mxCell id="S0TW6oNdfPbakom0dPrn-16" value="Correo" style="rounded=0;whiteSpace=wrap;html=1;" vertex="1" parent="1">
          <mxGeometry x="215" y="250" width="210" height="30" as="geometry" />
        </mxCell>
        <mxCell id="S0TW6oNdfPbakom0dPrn-17" value="Correo" style="rounded=0;whiteSpace=wrap;html=1;" vertex="1" parent="1">
          <mxGeometry x="215" y="705" width="210" height="30" as="geometry" />
        </mxCell>
        <mxCell id="S0TW6oNdfPbakom0dPrn-18" value="Contrase침a" style="rounded=0;whiteSpace=wrap;html=1;" vertex="1" parent="1">
          <mxGeometry x="215" y="750" width="210" height="30" as="geometry" />
        </mxCell>
        <mxCell id="S0TW6oNdfPbakom0dPrn-19" value="Nombre" style="rounded=0;whiteSpace=wrap;html=1;" vertex="1" parent="1">
          <mxGeometry x="215" y="660" width="210" height="30" as="geometry" />
        </mxCell>
        <mxCell id="S0TW6oNdfPbakom0dPrn-20" value="Telefono" style="rounded=0;whiteSpace=wrap;html=1;" vertex="1" parent="1">
          <mxGeometry x="215" y="800" width="210" height="30" as="geometry" />
        </mxCell>
        <mxCell id="S0TW6oNdfPbakom0dPrn-22" style="edgeStyle=orthogonalEdgeStyle;rounded=0;orthogonalLoop=1;jettySize=auto;html=1;entryX=0;entryY=0.5;entryDx=0;entryDy=0;" edge="1" parent="1" source="S0TW6oNdfPbakom0dPrn-21" target="S0TW6oNdfPbakom0dPrn-11">
          <mxGeometry relative="1" as="geometry">
            <Array as="points">
              <mxPoint x="600" y="870" />
              <mxPoint x="600" y="300" />
            </Array>
          </mxGeometry>
        </mxCell>
        <mxCell id="S0TW6oNdfPbakom0dPrn-21" value="Registrarse" style="rounded=0;whiteSpace=wrap;html=1;" vertex="1" parent="1">
          <mxGeometry x="260" y="850" width="120" height="40" as="geometry" />
        </mxCell>
        <mxCell id="S0TW6oNdfPbakom0dPrn-24" value="" style="rounded=0;whiteSpace=wrap;html=1;" vertex="1" parent="1">
          <mxGeometry x="680" y="195" width="420" height="60" as="geometry" />
        </mxCell>
        <mxCell id="S0TW6oNdfPbakom0dPrn-25" value="" style="rounded=0;whiteSpace=wrap;html=1;" vertex="1" parent="1">
          <mxGeometry x="680" y="275" width="420" height="60" as="geometry" />
        </mxCell>
        <mxCell id="S0TW6oNdfPbakom0dPrn-26" value="Primer Nivel" style="text;html=1;align=center;verticalAlign=middle;whiteSpace=wrap;rounded=0;" vertex="1" parent="1">
          <mxGeometry x="590" y="210" width="290" height="30" as="geometry" />
        </mxCell>
        <mxCell id="S0TW6oNdfPbakom0dPrn-27" value="21/03/24" style="text;html=1;align=center;verticalAlign=middle;whiteSpace=wrap;rounded=0;" vertex="1" parent="1">
          <mxGeometry x="1040" y="225" width="60" height="30" as="geometry" />
        </mxCell>
        <mxCell id="S0TW6oNdfPbakom0dPrn-28" value="Segundo Nivel" style="text;html=1;align=center;verticalAlign=middle;whiteSpace=wrap;rounded=0;" vertex="1" parent="1">
          <mxGeometry x="600" y="290" width="290" height="30" as="geometry" />
        </mxCell>
        <mxCell id="S0TW6oNdfPbakom0dPrn-29" value="31/03/24" style="text;html=1;align=center;verticalAlign=middle;whiteSpace=wrap;rounded=0;" vertex="1" parent="1">
          <mxGeometry x="1040" y="305" width="60" height="30" as="geometry" />
        </mxCell>
        <mxCell id="S0TW6oNdfPbakom0dPrn-36" style="edgeStyle=orthogonalEdgeStyle;rounded=0;orthogonalLoop=1;jettySize=auto;html=1;entryX=0.002;entryY=0.156;entryDx=0;entryDy=0;entryPerimeter=0;" edge="1" parent="1" target="S0TW6oNdfPbakom0dPrn-33">
          <mxGeometry relative="1" as="geometry">
            <mxPoint x="620" y="615" as="targetPoint" />
            <mxPoint x="670" y="420" as="sourcePoint" />
            <Array as="points">
              <mxPoint x="620" y="420" />
              <mxPoint x="620" y="616" />
            </Array>
          </mxGeometry>
        </mxCell>
        <mxCell id="S0TW6oNdfPbakom0dPrn-30" value="Crear Nivel" style="rounded=0;whiteSpace=wrap;html=1;" vertex="1" parent="1">
          <mxGeometry x="670" y="400" width="210" height="30" as="geometry" />
        </mxCell>
        <mxCell id="S0TW6oNdfPbakom0dPrn-82" style="edgeStyle=orthogonalEdgeStyle;rounded=0;orthogonalLoop=1;jettySize=auto;html=1;entryX=0.5;entryY=0;entryDx=0;entryDy=0;" edge="1" parent="1" source="S0TW6oNdfPbakom0dPrn-31" target="S0TW6oNdfPbakom0dPrn-80">
          <mxGeometry relative="1" as="geometry" />
        </mxCell>
        <mxCell id="S0TW6oNdfPbakom0dPrn-31" value="Borrar Nivel" style="rounded=0;whiteSpace=wrap;html=1;" vertex="1" parent="1">
          <mxGeometry x="900" y="400" width="210" height="30" as="geometry" />
        </mxCell>
        <mxCell id="S0TW6oNdfPbakom0dPrn-65" style="edgeStyle=orthogonalEdgeStyle;rounded=0;orthogonalLoop=1;jettySize=auto;html=1;entryX=0;entryY=0.5;entryDx=0;entryDy=0;" edge="1" parent="1" source="S0TW6oNdfPbakom0dPrn-32" target="S0TW6oNdfPbakom0dPrn-63">
          <mxGeometry relative="1" as="geometry">
            <Array as="points">
              <mxPoint x="620" y="450" />
              <mxPoint x="620" y="1180" />
            </Array>
          </mxGeometry>
        </mxCell>
        <mxCell id="S0TW6oNdfPbakom0dPrn-32" value="Jugar Nivel" style="rounded=0;whiteSpace=wrap;html=1;" vertex="1" parent="1">
          <mxGeometry x="670" y="435" width="210" height="30" as="geometry" />
        </mxCell>
        <mxCell id="S0TW6oNdfPbakom0dPrn-33" value="" style="rounded=0;whiteSpace=wrap;html=1;" vertex="1" parent="1">
          <mxGeometry x="640" y="560" width="480" height="360" as="geometry" />
        </mxCell>
        <mxCell id="S0TW6oNdfPbakom0dPrn-61" style="edgeStyle=orthogonalEdgeStyle;rounded=0;orthogonalLoop=1;jettySize=auto;html=1;entryX=0.5;entryY=0;entryDx=0;entryDy=0;" edge="1" parent="1" source="S0TW6oNdfPbakom0dPrn-35" target="S0TW6oNdfPbakom0dPrn-43">
          <mxGeometry relative="1" as="geometry">
            <Array as="points">
              <mxPoint x="1005" y="520" />
              <mxPoint x="1440" y="520" />
            </Array>
          </mxGeometry>
        </mxCell>
        <mxCell id="S0TW6oNdfPbakom0dPrn-35" value="Editar Nivel" style="rounded=0;whiteSpace=wrap;html=1;" vertex="1" parent="1">
          <mxGeometry x="900" y="435" width="210" height="30" as="geometry" />
        </mxCell>
        <mxCell id="S0TW6oNdfPbakom0dPrn-37" value="&lt;font style=&quot;font-size: 32px;&quot;&gt;Opciones del nivel&lt;br&gt;&lt;/font&gt;" style="text;html=1;align=center;verticalAlign=middle;whiteSpace=wrap;rounded=0;" vertex="1" parent="1">
          <mxGeometry x="740" y="590" width="280" height="30" as="geometry" />
        </mxCell>
        <mxCell id="S0TW6oNdfPbakom0dPrn-38" value="Gravedad" style="rounded=0;whiteSpace=wrap;html=1;" vertex="1" parent="1">
          <mxGeometry x="785" y="710" width="210" height="30" as="geometry" />
        </mxCell>
        <mxCell id="S0TW6oNdfPbakom0dPrn-40" value="Nombre" style="rounded=0;whiteSpace=wrap;html=1;" vertex="1" parent="1">
          <mxGeometry x="785" y="660" width="210" height="30" as="geometry" />
        </mxCell>
        <mxCell id="S0TW6oNdfPbakom0dPrn-41" value="Fondo" style="rounded=0;whiteSpace=wrap;html=1;" vertex="1" parent="1">
          <mxGeometry x="785" y="760" width="210" height="30" as="geometry" />
        </mxCell>
        <mxCell id="S0TW6oNdfPbakom0dPrn-62" style="edgeStyle=orthogonalEdgeStyle;rounded=0;orthogonalLoop=1;jettySize=auto;html=1;entryX=0.5;entryY=0;entryDx=0;entryDy=0;" edge="1" parent="1" source="S0TW6oNdfPbakom0dPrn-42" target="S0TW6oNdfPbakom0dPrn-43">
          <mxGeometry relative="1" as="geometry">
            <Array as="points">
              <mxPoint x="1160" y="870" />
              <mxPoint x="1160" y="520" />
              <mxPoint x="1440" y="520" />
            </Array>
          </mxGeometry>
        </mxCell>
        <mxCell id="S0TW6oNdfPbakom0dPrn-42" value="Crear Nivel" style="rounded=0;whiteSpace=wrap;html=1;" vertex="1" parent="1">
          <mxGeometry x="820" y="850" width="120" height="40" as="geometry" />
        </mxCell>
        <mxCell id="S0TW6oNdfPbakom0dPrn-43" value="" style="rounded=0;whiteSpace=wrap;html=1;" vertex="1" parent="1">
          <mxGeometry x="1200" y="560" width="480" height="360" as="geometry" />
        </mxCell>
        <mxCell id="S0TW6oNdfPbakom0dPrn-45" value="" style="rounded=0;whiteSpace=wrap;html=1;" vertex="1" parent="1">
          <mxGeometry x="1200" y="620" width="120" height="300" as="geometry" />
        </mxCell>
        <mxCell id="S0TW6oNdfPbakom0dPrn-46" value="" style="rounded=0;whiteSpace=wrap;html=1;" vertex="1" parent="1">
          <mxGeometry x="1200" y="560" width="120" height="60" as="geometry" />
        </mxCell>
        <mxCell id="S0TW6oNdfPbakom0dPrn-47" value="" style="swimlane;startSize=0;" vertex="1" parent="1">
          <mxGeometry x="1237.5" y="634" width="45" height="45" as="geometry" />
        </mxCell>
        <mxCell id="S0TW6oNdfPbakom0dPrn-48" value="" style="swimlane;startSize=0;" vertex="1" parent="1">
          <mxGeometry x="1237.5" y="690" width="45" height="45" as="geometry" />
        </mxCell>
        <mxCell id="S0TW6oNdfPbakom0dPrn-49" value="" style="swimlane;startSize=0;" vertex="1" parent="1">
          <mxGeometry x="1237.5" y="747.5" width="45" height="45" as="geometry" />
        </mxCell>
        <mxCell id="S0TW6oNdfPbakom0dPrn-50" value="" style="swimlane;startSize=0;" vertex="1" parent="1">
          <mxGeometry x="1237.5" y="805" width="45" height="45" as="geometry" />
        </mxCell>
        <mxCell id="S0TW6oNdfPbakom0dPrn-52" value="" style="swimlane;startSize=0;" vertex="1" parent="1">
          <mxGeometry x="1360" y="735" width="45" height="45" as="geometry" />
        </mxCell>
        <mxCell id="S0TW6oNdfPbakom0dPrn-53" value="" style="swimlane;startSize=0;" vertex="1" parent="1">
          <mxGeometry x="1405" y="735" width="45" height="45" as="geometry" />
        </mxCell>
        <mxCell id="S0TW6oNdfPbakom0dPrn-54" value="" style="swimlane;startSize=0;" vertex="1" parent="1">
          <mxGeometry x="1450" y="735" width="45" height="45" as="geometry" />
        </mxCell>
        <mxCell id="S0TW6oNdfPbakom0dPrn-55" value="" style="swimlane;startSize=0;" vertex="1" parent="1">
          <mxGeometry x="1495" y="735" width="45" height="45" as="geometry" />
        </mxCell>
        <mxCell id="S0TW6oNdfPbakom0dPrn-56" value="" style="swimlane;startSize=0;" vertex="1" parent="1">
          <mxGeometry x="1540" y="735" width="45" height="45" as="geometry" />
        </mxCell>
        <mxCell id="S0TW6oNdfPbakom0dPrn-57" value="" style="swimlane;startSize=0;" vertex="1" parent="1">
          <mxGeometry x="1585" y="735" width="45" height="45" as="geometry" />
        </mxCell>
        <mxCell id="S0TW6oNdfPbakom0dPrn-58" value="" style="swimlane;startSize=0;" vertex="1" parent="1">
          <mxGeometry x="1360" y="690" width="45" height="45" as="geometry" />
        </mxCell>
        <mxCell id="S0TW6oNdfPbakom0dPrn-59" value="" style="swimlane;startSize=0;" vertex="1" parent="1">
          <mxGeometry x="1450" y="600" width="45" height="45" as="geometry" />
        </mxCell>
        <mxCell id="S0TW6oNdfPbakom0dPrn-63" value="" style="rounded=0;whiteSpace=wrap;html=1;" vertex="1" parent="1">
          <mxGeometry x="640" y="1000" width="480" height="360" as="geometry" />
        </mxCell>
        <mxCell id="S0TW6oNdfPbakom0dPrn-64" value="" style="sketch=0;outlineConnect=0;fontColor=#232F3E;gradientColor=none;fillColor=#232F3D;strokeColor=none;dashed=0;verticalLabelPosition=bottom;verticalAlign=top;align=center;html=1;fontSize=12;fontStyle=0;aspect=fixed;pointerEvents=1;shape=mxgraph.aws4.gear;" vertex="1" parent="1">
          <mxGeometry x="1646" y="564" width="30" height="30" as="geometry" />
        </mxCell>
        <mxCell id="S0TW6oNdfPbakom0dPrn-66" value="" style="swimlane;startSize=0;" vertex="1" parent="1">
          <mxGeometry x="745" y="1215" width="45" height="45" as="geometry" />
        </mxCell>
        <mxCell id="S0TW6oNdfPbakom0dPrn-67" value="" style="swimlane;startSize=0;" vertex="1" parent="1">
          <mxGeometry x="790" y="1215" width="45" height="45" as="geometry" />
        </mxCell>
        <mxCell id="S0TW6oNdfPbakom0dPrn-68" value="" style="swimlane;startSize=0;" vertex="1" parent="1">
          <mxGeometry x="835" y="1215" width="45" height="45" as="geometry" />
        </mxCell>
        <mxCell id="S0TW6oNdfPbakom0dPrn-69" value="" style="swimlane;startSize=0;" vertex="1" parent="1">
          <mxGeometry x="880" y="1215" width="45" height="45" as="geometry" />
        </mxCell>
        <mxCell id="S0TW6oNdfPbakom0dPrn-70" value="" style="swimlane;startSize=0;" vertex="1" parent="1">
          <mxGeometry x="925" y="1215" width="45" height="45" as="geometry" />
        </mxCell>
        <mxCell id="S0TW6oNdfPbakom0dPrn-71" value="" style="swimlane;startSize=0;" vertex="1" parent="1">
          <mxGeometry x="970" y="1215" width="45" height="45" as="geometry" />
        </mxCell>
        <mxCell id="S0TW6oNdfPbakom0dPrn-72" value="" style="swimlane;startSize=0;" vertex="1" parent="1">
          <mxGeometry x="745" y="1170" width="45" height="45" as="geometry" />
        </mxCell>
        <mxCell id="S0TW6oNdfPbakom0dPrn-73" value="" style="swimlane;startSize=0;" vertex="1" parent="1">
          <mxGeometry x="835" y="1080" width="45" height="45" as="geometry" />
        </mxCell>
        <mxCell id="S0TW6oNdfPbakom0dPrn-74" value="" style="swimlane;startSize=0;" vertex="1" parent="1">
          <mxGeometry x="857.5" y="1170" width="45" height="45" as="geometry" />
        </mxCell>
        <mxCell id="S0TW6oNdfPbakom0dPrn-75" value="" style="image;aspect=fixed;html=1;points=[];align=center;fontSize=12;image=img/lib/azure2/general/Heart.svg;" vertex="1" parent="S0TW6oNdfPbakom0dPrn-74">
          <mxGeometry x="6.5" y="7.5" width="32" height="30" as="geometry" />
        </mxCell>
        <mxCell id="S0TW6oNdfPbakom0dPrn-76" value="Jugador" style="text;html=1;align=center;verticalAlign=middle;whiteSpace=wrap;rounded=0;" vertex="1" parent="1">
          <mxGeometry x="925" y="1130" width="60" height="30" as="geometry" />
        </mxCell>
        <mxCell id="S0TW6oNdfPbakom0dPrn-77" value="" style="endArrow=classic;html=1;rounded=0;entryX=1;entryY=0;entryDx=0;entryDy=0;" edge="1" parent="1" source="S0TW6oNdfPbakom0dPrn-76" target="S0TW6oNdfPbakom0dPrn-74">
          <mxGeometry width="50" height="50" relative="1" as="geometry">
            <mxPoint x="790" y="1220" as="sourcePoint" />
            <mxPoint x="840" y="1170" as="targetPoint" />
          </mxGeometry>
        </mxCell>
        <mxCell id="S0TW6oNdfPbakom0dPrn-78" value="" style="swimlane;startSize=0;" vertex="1" parent="1">
          <mxGeometry x="1450" y="690" width="45" height="45" as="geometry" />
        </mxCell>
        <mxCell id="S0TW6oNdfPbakom0dPrn-79" value="" style="image;aspect=fixed;html=1;points=[];align=center;fontSize=12;image=img/lib/azure2/general/Heart.svg;" vertex="1" parent="S0TW6oNdfPbakom0dPrn-78">
          <mxGeometry x="6.5" y="7.5" width="32" height="30" as="geometry" />
        </mxCell>
        <mxCell id="S0TW6oNdfPbakom0dPrn-80" value="" style="rounded=0;whiteSpace=wrap;html=1;" vertex="1" parent="1">
          <mxGeometry x="1760" y="560" width="480" height="360" as="geometry" />
        </mxCell>
        <mxCell id="S0TW6oNdfPbakom0dPrn-83" value="&lt;font style=&quot;font-size: 32px;&quot;&gt;Deseas Eliminar (nombre Del Nivel)&lt;br&gt;&lt;/font&gt;" style="text;html=1;align=center;verticalAlign=middle;whiteSpace=wrap;rounded=0;" vertex="1" parent="1">
          <mxGeometry x="1870" y="630" width="280" height="30" as="geometry" />
        </mxCell>
        <mxCell id="S0TW6oNdfPbakom0dPrn-89" style="edgeStyle=orthogonalEdgeStyle;rounded=0;orthogonalLoop=1;jettySize=auto;html=1;entryX=0.5;entryY=0;entryDx=0;entryDy=0;" edge="1" parent="1" source="S0TW6oNdfPbakom0dPrn-85" target="S0TW6oNdfPbakom0dPrn-88">
          <mxGeometry relative="1" as="geometry">
            <Array as="points">
              <mxPoint x="1920" y="960" />
              <mxPoint x="2000" y="960" />
            </Array>
          </mxGeometry>
        </mxCell>
        <mxCell id="S0TW6oNdfPbakom0dPrn-85" value="&lt;div&gt;Si&lt;/div&gt;" style="rounded=0;whiteSpace=wrap;html=1;" vertex="1" parent="1">
          <mxGeometry x="1860" y="790" width="120" height="40" as="geometry" />
        </mxCell>
        <mxCell id="S0TW6oNdfPbakom0dPrn-87" style="edgeStyle=orthogonalEdgeStyle;rounded=0;orthogonalLoop=1;jettySize=auto;html=1;entryX=1;entryY=0.5;entryDx=0;entryDy=0;" edge="1" parent="1" source="S0TW6oNdfPbakom0dPrn-86" target="S0TW6oNdfPbakom0dPrn-11">
          <mxGeometry relative="1" as="geometry">
            <Array as="points">
              <mxPoint x="2080" y="300" />
            </Array>
          </mxGeometry>
        </mxCell>
        <mxCell id="S0TW6oNdfPbakom0dPrn-86" value="No" style="rounded=0;whiteSpace=wrap;html=1;" vertex="1" parent="1">
          <mxGeometry x="2020" y="790" width="120" height="40" as="geometry" />
        </mxCell>
        <mxCell id="S0TW6oNdfPbakom0dPrn-88" value="" style="rounded=0;whiteSpace=wrap;html=1;" vertex="1" parent="1">
          <mxGeometry x="1760" y="1000" width="480" height="360" as="geometry" />
        </mxCell>
        <mxCell id="S0TW6oNdfPbakom0dPrn-90" value="&lt;font style=&quot;font-size: 32px;&quot;&gt;Estas Seguro?&lt;br&gt;&lt;/font&gt;" style="text;html=1;align=center;verticalAlign=middle;whiteSpace=wrap;rounded=0;" vertex="1" parent="1">
          <mxGeometry x="1870" y="1060" width="280" height="30" as="geometry" />
        </mxCell>
        <mxCell id="S0TW6oNdfPbakom0dPrn-93" style="edgeStyle=orthogonalEdgeStyle;rounded=0;orthogonalLoop=1;jettySize=auto;html=1;entryX=1;entryY=0.5;entryDx=0;entryDy=0;" edge="1" parent="1" source="S0TW6oNdfPbakom0dPrn-91" target="S0TW6oNdfPbakom0dPrn-11">
          <mxGeometry relative="1" as="geometry">
            <mxPoint x="2080" y="510" as="targetPoint" />
            <Array as="points">
              <mxPoint x="1910" y="1140" />
              <mxPoint x="2080" y="1140" />
              <mxPoint x="2080" y="300" />
            </Array>
          </mxGeometry>
        </mxCell>
        <mxCell id="S0TW6oNdfPbakom0dPrn-91" value="No" style="rounded=0;whiteSpace=wrap;html=1;" vertex="1" parent="1">
          <mxGeometry x="1850" y="1190" width="120" height="40" as="geometry" />
        </mxCell>
        <mxCell id="S0TW6oNdfPbakom0dPrn-95" style="edgeStyle=orthogonalEdgeStyle;rounded=0;orthogonalLoop=1;jettySize=auto;html=1;entryX=1;entryY=0.5;entryDx=0;entryDy=0;" edge="1" parent="1" source="S0TW6oNdfPbakom0dPrn-92" target="S0TW6oNdfPbakom0dPrn-11">
          <mxGeometry relative="1" as="geometry">
            <Array as="points">
              <mxPoint x="2080" y="300" />
            </Array>
          </mxGeometry>
        </mxCell>
        <mxCell id="S0TW6oNdfPbakom0dPrn-92" value="Si" style="rounded=0;whiteSpace=wrap;html=1;" vertex="1" parent="1">
          <mxGeometry x="2010" y="1190" width="120" height="40" as="geometry" />
        </mxCell>
        <mxCell id="S0TW6oNdfPbakom0dPrn-96" value="&lt;font style=&quot;font-size: 32px;&quot;&gt;Seleccion de Niveles&lt;br&gt;&lt;/font&gt;" style="text;html=1;align=center;verticalAlign=middle;whiteSpace=wrap;rounded=0;" vertex="1" parent="1">
          <mxGeometry x="740" y="140" width="300" height="30" as="geometry" />
        </mxCell>
      </root>
    </mxGraphModel>
  </diagram>
</mxfile>
